# xmcd CD database file generated by MAGIX_Freedb v0.9beta0
# 
# Track frame offsets:
#      183
#      9455
#      28933
#      44740
#      52240
#      76600
#      93003
#      100935
#      119640
#      133533
# 
# Disc length: 2134 seconds
# 
# Revision: 0 
# Processed by: cddbd v1.5.2PL0 Copyright (c) Steve Scherf et al.
# Submitted via: MAGIX_Freedb v0.9beta0
# 
DISCID=8008540a
DTITLE=The Last Poets - This Is Madness
DYEAR=1971
DGENRE=
TTITLE0=Last Poets - True Blues
TTITLE1=Last Poets - Related To What
TTITLE2=Last Poets - Black Is
TTITLE3=Last Poets - Time
TTITLE4=Last Poets - Mean Machine
TTITLE5=Last Poets - White Man's Got A God Complex
TTITLE6=Last Poets - Opposites
TTITLE7=Last Poets - Black People What Y'All Gon' Do
TTITLE8=Last Poets - O D
TTITLE9=Last Poets - This Is Madness
EXTD=
EXTT0=
EXTT1=
EXTT2=
EXTT3=
EXTT4=
EXTT5=
EXTT6=
EXTT7=
EXTT8=
EXTT9=
PLAYORDER=
